 http://desibbrg.org/images/66952052392581364616.gif 
http://desibbrg.org/images/74252656915170622340.jpg 
http://desibbrg.org/images/41489135881515844308.jpg 
http://desibbrg.org/images/41087690250511210600.jpg 
http://desibbrg.org/images/95716631507237009011.jpg 
http://desibbrg.org/images/83772782645509535473.jpg

Info - 
Genre............: Thriller
Year.............: 2013
Cast.............: Paresh Rawal
Director.........: ASHIS R MOHAN
Runtime.........: 1Hr 46Min XXSec
Source...........: Intellect Clever Team IcTv

Media Info - 
General
Complete name : Table No. 21 (2013) 1CD DvdRip - Xvid - Mp3 - Team IcTv Xclusive.avi
Format : AVI
Format/Info : Audio Video Interleave
File size : 698 MiB
Duration : 1h 46mn
Overall bit rate mode : Variable
Overall bit rate : 918 Kbps

Video
ID : 0
Format : MPEG-4 Visual
Format profile : Advanced Simple@L5
Format settings, BVOP : 2
Format settings, QPel : No
Format settings, GMC : No warppoints
Format settings, Matrix : Default (H.263)
Codec ID : XVID
Codec ID/Hint : XviD
Duration : 1h 46mn
Bit rate : 817 Kbps
Width : 640 pixels
Height : 272 pixels
Display aspect ratio : 2.35:1
Frame rate : 23.976 fps
Color space : YUV
Chroma subsampling : 4:2:0
Bit depth : 8 bits
Scan type : Progressive
Compression mode : Lossy
Bits/(Pixel*Frame) : 0.196
Stream size : 621 MiB (89%)
Writing library : XviD 1.2.1 (UTC 2008-12-04)

Audio
ID : 1
Format : MPEG Audio
Format version : Version 1
Format profile : Layer 3
Mode : Joint stereo
Codec ID : 55
Codec ID/Hint : MP3
Duration : 1h 46mn
Bit rate mode : Variable
Bit rate : 91.2 Kbps
Nominal bit rate : 96.0 Kbps
Channel(s) : 2 channels
Sampling rate : 32.0 KHz
Compression mode : Lossy
Stream size : 69.4 MiB (10%)
Alignment : Aligned on interleaves
Interleave, duration : 36 ms (0.86 video frame)
Interleave, preload duration : 454 ms
Title : VTS_03_1 T80 3_2ch 448Kbps DELAY 0ms
Writing library : LAME3.99r

Ripper : -=Hell=-

Seeding 24x7... Extreme Seeding...


Enjoy!
